<svg width="838" height="447" viewBox="0 0 838 447" fill="none" xmlns="http://www.w3.org/2000/svg">
<rect width="838" height="447" fill="white"/>
<path d="M394.032 211.031C415.594 239.026 417.848 241.385 418.366 244.735C418.895 248.063 418.07 253.224 416.25 255.267C414.822 256.878 412.378 257.089 409.902 257.373C406.643 257.753 402.506 257.237 398.264 256.32C392.857 255.141 385.747 252.602 380.277 250.001C375.252 247.61 370.184 244.84 366.523 241.575C363.37 238.752 360.704 235.624 359.117 232.096C357.551 228.599 356.99 224.734 357.001 220.51C357.022 215.413 358.049 209.083 360.175 203.658C362.471 197.813 366.597 192.02 370.755 186.807C375.03 181.467 379.727 176.169 385.568 172.061C391.905 167.606 400.126 163.983 407.786 161.529C415.298 159.117 422.81 157.759 431.062 157.316C440.32 156.811 453.164 157.822 460.687 159.423C465.554 160.455 469.458 161.318 472.325 163.636C474.906 165.71 476.388 168.607 477.615 172.061C479.234 176.569 479.615 182.783 479.731 188.913C479.869 196.244 479.276 204.09 477.615 213.138C475.414 225.123 470.981 242.902 465.977 254.214C462.073 263.04 458.169 270.497 452.223 276.332C446.456 281.998 438.468 286.158 431.062 288.971C423.984 291.656 416.091 293.721 408.844 293.183C401.639 292.646 394.402 289.339 387.684 285.811C380.605 282.082 374.077 276.627 367.581 271.066C360.651 265.125 353.319 257.868 347.479 251.054C342.178 244.851 337.227 238.057 333.725 232.096C330.91 227.304 328.286 222.501 327.377 218.404C326.699 215.339 326.276 212.379 327.377 209.978C328.572 207.397 331.704 205.207 334.783 203.658C338.486 201.794 343.49 201.068 348.537 200.499C354.568 199.814 361.73 199.877 368.639 200.499C376.151 201.173 384.234 202.237 391.916 204.712C400.115 207.355 409.045 211.547 416.25 216.297C423.053 220.774 429.147 226.535 434.236 232.096C438.86 237.12 443.378 243.292 445.874 247.894C447.567 251.012 449.662 254.003 449.049 256.32C448.467 258.532 445.208 260.365 442.7 261.586C439.981 262.913 436.458 263.493 433.178 263.693C429.761 263.893 425.889 263.398 422.598 262.64C419.572 261.934 416.821 261.07 414.134 259.48C411.14 257.7 407.807 254.983 405.67 252.107C403.617 249.337 402.485 246.009 401.438 242.628C400.327 239.016 398.052 232.907 399.322 231.043C400.189 229.779 402.506 229.779 404.612 229.989C407.976 230.316 413.087 232.538 417.308 235.256C422.619 238.657 428.745 244.492 433.178 250.001C437.527 255.393 440.923 261.692 443.758 267.906C446.541 273.994 448.9 280.755 450.107 286.864C451.186 292.299 451.969 298.144 451.165 302.663C450.519 306.317 449.091 309.403 446.933 312.142C444.615 315.08 440.881 317.429 437.41 319.514C433.845 321.663 429.92 323.717 425.772 324.781C421.477 325.876 416.462 326.371 412.018 325.834C407.648 325.297 403.141 323.475 399.322 321.621C395.799 319.904 393.016 318.587 389.8 315.301C384.605 309.972 376.754 298.028 373.929 290.024C371.739 283.799 371.147 275.953 371.813 272.119C372.162 270.16 372.448 269.349 373.929 267.906C377.304 264.609 388.752 259.448 396.148 257.373C402.856 255.488 409.637 255.425 416.25 255.267C422.683 255.109 429.994 254.919 435.294 256.32C439.473 257.426 443.335 259.343 445.874 261.586C447.927 263.377 449.313 265.009 450.107 267.906C451.45 272.73 451.514 283.862 449.049 288.971C447.144 292.931 442.605 296.227 439.526 297.396C437.357 298.218 435.612 298.397 433.178 297.396C428.174 295.332 419.403 284.399 414.134 278.438C409.913 273.646 406.061 269.433 403.554 264.746C401.353 260.628 399.385 256.131 399.322 252.107C399.269 248.442 400.687 244.808 402.496 241.575C404.453 238.099 407.363 234.761 410.96 232.096C415.181 228.957 421.085 226.303 426.83 224.723C433.009 223.017 439.907 222.68 446.933 222.617C454.656 222.543 463.681 222.848 471.267 224.723C478.44 226.482 485.476 229.357 491.369 233.149C497.051 236.793 502.563 242.017 506.181 246.841C509.218 250.875 511.926 255.741 512.53 259.48C512.974 262.187 513.027 264.999 511.472 266.853C509.398 269.328 503.621 270.402 498.775 271.066C492.692 271.887 485.085 271.044 477.615 270.012C469.003 268.812 459.999 266.874 450.107 263.693C437.823 259.733 416.737 252.623 409.902 246.841C406.643 244.071 405.723 241.828 404.612 238.415C403.215 234.108 402.284 227.156 403.554 222.617C404.707 218.52 408.008 215.212 410.96 212.084C413.986 208.872 417.625 206.07 421.54 203.658C425.688 201.11 430.597 198.55 435.294 197.339C439.78 196.17 444.753 195.528 449.049 196.286C453.196 197.013 457.904 198.15 460.687 201.552C464.496 206.197 466.982 224.333 465.977 224.723C465.13 225.05 459.671 214.918 457.513 209.978C455.545 205.438 454.159 200.804 453.281 196.286C452.455 192.031 451.852 187.734 452.223 183.647C452.593 179.666 453.661 175.326 455.397 172.061C456.963 169.123 459.396 166.258 461.745 164.689C463.702 163.383 465.86 162.424 468.093 162.582C470.748 162.772 473.362 164.826 476.557 166.795C481.35 169.744 487.285 173.894 493.485 179.434C502.531 187.502 518.349 204.543 524.168 212.084C526.919 215.634 529.373 218.614 529.458 220.51C529.5 221.427 529.204 221.995 528.4 222.617C526.368 224.186 519.121 225.187 513.588 225.776C506.742 226.493 498.712 226.44 490.311 225.776C480.292 224.976 467.998 222.88 457.513 220.51C447.588 218.256 436.575 215.465 428.946 212.084C423.339 209.588 418.546 206.544 415.192 203.658C412.801 201.594 410.791 199.772 409.902 197.339C409.003 194.864 408.833 191.199 409.902 188.913C410.971 186.649 413.69 184.869 416.25 183.647C419.191 182.246 423.296 181.709 426.83 181.541C430.343 181.361 434.279 181.235 437.41 182.594C440.648 183.984 443.367 186.933 445.874 189.966C448.752 193.432 451.503 198.361 453.281 202.605C454.899 206.439 456.635 211.105 456.455 214.191C456.338 216.308 455.703 218.235 454.339 219.457C452.762 220.879 449.81 221.384 446.933 221.563C443.081 221.806 438.775 221.29 433.178 219.457C423.074 216.139 401.766 204.838 392.974 198.392C387.927 194.685 384.922 191.515 382.393 187.86C380.288 184.806 378.532 181.267 378.161 178.381C377.876 176.106 378.257 173.936 379.219 172.061C380.267 170.039 382.182 168.143 384.51 166.795C387.472 165.078 391.757 163.973 396.148 163.636C401.681 163.204 409.532 163.435 415.192 165.742C420.81 168.028 425.783 172.778 430.004 177.328C434.257 181.899 437.696 187.818 440.584 193.126C443.24 198.003 446.086 203.722 446.933 207.871C447.514 210.684 448.255 213.275 446.933 215.244C445.144 217.919 438.87 219.436 434.236 220.51C429.094 221.7 423.328 221.658 417.308 221.563C410.399 221.448 402.284 221.184 395.09 219.457C387.821 217.698 380.066 214.307 373.929 211.031C368.671 208.219 363.688 204.912 360.175 201.552C357.382 198.877 355.001 195.728 353.827 193.126C352.991 191.262 352.272 189.492 352.769 187.86C353.361 185.933 355.88 184.089 358.059 182.594C360.641 180.824 363.921 179.413 367.581 178.381C372.12 177.096 377.844 176.348 383.451 176.274C389.757 176.18 397.047 176.812 403.554 178.381C410.103 179.961 416.694 182.699 422.598 185.753C428.301 188.703 434.131 192.189 438.468 196.286C442.436 200.014 446.351 204.796 447.991 208.925C449.271 212.126 449.789 215.56 449.049 218.404C448.329 221.163 446.34 223.786 443.758 225.776C440.489 228.294 435.231 229.81 430.004 231.043C423.572 232.549 416.176 233.749 407.786 233.149C396.518 232.338 379.516 227.63 368.639 223.67C360.313 220.626 353.171 216.761 347.479 213.138C343.173 210.389 339.586 208.008 336.899 204.712C334.402 201.626 331.344 195.822 331.609 194.179C331.704 193.59 332.042 193.347 332.667 193.126C334.423 192.494 340.475 192.958 344.305 194.179C348.6 195.538 352.272 197.718 357.001 201.552C365.074 208.082 378.754 223.417 385.568 233.149C390.54 240.248 393.63 246.746 396.148 253.161C398.295 258.606 400.285 264.346 400.38 268.959C400.454 272.508 399.914 275.963 398.264 278.438C396.677 280.829 393.894 282.609 390.858 283.704C387.133 285.052 381.685 284.926 377.103 284.758C372.512 284.579 367.444 283.841 363.349 282.651C359.815 281.608 356.652 280.703 353.827 278.438C350.515 275.773 346.632 270.728 345.363 266.853C344.337 263.703 344.813 260.386 345.363 257.373C345.902 254.424 346.834 251.37 348.537 248.948C350.314 246.42 352.854 244.04 355.943 242.628C359.636 240.932 364.809 240.469 369.697 240.522C375.294 240.585 381.991 241.891 387.684 243.681C393.259 245.43 399.152 247.979 403.554 251.054C407.416 253.74 410.717 257.268 413.076 260.533C415.065 263.261 417.001 265.863 417.308 268.959C417.657 272.456 416.144 277.353 414.134 280.545C412.198 283.62 408.918 286 405.67 287.917C402.263 289.918 398.401 291.625 394.032 292.13C388.752 292.741 381.875 291.425 376.045 290.024C370.237 288.612 364.407 286.506 359.117 283.704C353.816 280.892 347.511 276.9 344.305 273.172C341.998 270.476 340.644 267.801 340.073 264.746C339.48 261.502 340.136 257.321 341.131 254.214C342.03 251.433 343.384 248.895 345.363 246.841C347.511 244.619 350.463 242.797 353.827 241.575C357.953 240.069 363.476 239.384 368.639 239.468C374.353 239.563 381.007 240.532 386.626 242.628C392.297 244.735 397.576 248.432 402.496 252.107C407.458 255.794 412.674 260.007 416.25 264.746C419.615 269.201 421.858 274.783 423.656 279.491C425.201 283.504 427.116 287.454 426.83 291.077C426.576 294.437 424.704 297.923 422.598 300.556C420.482 303.2 417.731 305.559 414.134 306.876C409.447 308.582 402.379 308.203 396.148 307.929C389.366 307.623 381.568 306.465 374.987 304.769C368.946 303.2 362.862 301.167 358.059 298.45C353.901 296.09 350.505 293.226 347.479 290.024C344.527 286.885 341.586 283.862 340.073 279.491C338.147 273.888 337.671 265.673 339.015 258.427C340.581 249.959 346.146 237.846 350.653 232.096C353.573 228.378 356.842 226.493 360.175 224.723C363.222 223.101 366.439 221.606 369.697 221.563C373.125 221.511 377.093 222.448 380.277 224.723C384.372 227.63 389.027 234.487 390.858 239.468C392.402 243.629 392.339 248.116 391.916 252.107C391.535 255.815 390.403 259.88 388.742 262.64C387.387 264.904 385.694 266.684 383.451 267.906C380.902 269.296 377.474 269.875 373.929 270.012C369.549 270.181 365.169 269.654 359.117 267.906C348.463 264.83 326.805 254.909 316.796 248.948C310.681 245.303 306.618 241.786 303.042 238.415C300.365 235.877 297.456 233.928 296.694 231.043C295.901 227.999 297.149 223.607 298.81 220.51C300.566 217.245 303.55 214.37 307.274 212.084C312.109 209.114 319.293 207.176 326.319 205.765C334.561 204.111 344.58 203.5 353.827 203.658C363.275 203.816 372.956 204.922 382.393 206.818C392.011 208.746 402.327 211.653 410.96 215.244C418.736 218.467 426.947 221.585 432.12 226.83C436.881 231.632 441.716 240.079 441.642 244.735C441.6 247.747 439.833 250.254 437.41 252.107C434.056 254.677 427.507 255.288 421.54 256.32C414.123 257.605 405.395 258.69 396.148 258.427C384.954 258.1 369.126 255.878 359.117 253.161C351.912 251.202 345.987 248.8 341.131 245.788C337.206 243.344 333.725 240.753 331.609 237.362C329.556 234.055 328.043 229.789 328.435 225.776C328.911 221.068 332.381 215.212 335.841 211.031C339.385 206.744 344.432 203.111 349.595 200.499C354.97 197.771 361.286 196.454 367.581 195.233C374.289 193.927 381.716 192.779 388.742 193.126C395.82 193.463 402.845 194.927 409.902 197.339C417.657 199.983 426.1 204.143 433.178 208.925C440.193 213.643 447.324 219.72 452.223 225.776C456.508 231.064 459.586 237.552 461.745 242.628C463.385 246.451 465.204 249.896 464.919 253.161C464.665 256.183 462.845 259.648 460.687 261.586C458.581 263.472 455.545 264.03 452.223 264.746C447.821 265.694 441.6 266.305 436.352 265.799C431.02 265.283 425.508 263.387 420.482 261.586C415.658 259.849 410.251 258.553 406.728 255.267C403.162 251.918 399.84 246.051 399.322 241.575C398.877 237.636 400.496 233.423 402.496 229.989C404.612 226.356 408.4 222.806 412.018 220.51C415.488 218.309 419.35 216.919 423.656 216.297C428.703 215.571 435.136 216.129 440.584 217.351C446.065 218.572 451.778 220.458 456.455 223.67C461.353 227.03 465.257 231.843 469.151 237.362C473.88 244.04 478.514 254.151 481.847 261.586C484.556 267.621 487.455 274.362 488.195 278.438C488.597 280.639 489.317 282.851 488.195 283.704C486.037 285.337 476.843 281.019 469.151 278.438C456.772 274.267 428.661 264.146 421.54 259.48C419.107 257.879 418.218 257.1 417.308 255.267C416.239 253.076 415.911 249.822 416.25 246.841C416.663 243.239 418.26 239.079 420.482 235.256C423.169 230.642 427.772 225.734 432.12 221.563C436.575 217.287 441.463 212.779 446.933 209.978C452.402 207.176 458.772 205.586 464.919 204.712C471.119 203.816 477.678 203.859 483.963 204.712C490.375 205.575 497.95 207.44 503.007 209.978C506.964 211.958 510.414 214.275 512.53 217.351C514.561 220.289 515.852 224.165 515.704 227.883C515.545 232.17 513.312 237.32 510.414 241.575C507.028 246.557 500.352 253.097 495.601 255.267C492.343 256.752 489.158 256.931 486.079 256.32C482.799 255.657 479.593 253.55 476.557 251.054C472.822 247.968 469.013 243.365 465.977 238.415C462.507 232.717 460.147 225.734 457.513 218.404C454.434 209.83 450.244 198.129 449.049 189.966C448.181 184.005 451.006 174.884 449.049 174.168C446.467 173.22 437.685 189.83 431.062 195.233C425.201 200.014 418.662 203.479 412.018 205.765C405.596 207.966 398.211 209.051 391.916 208.925C386.308 208.809 380.775 207.65 376.045 205.765C371.686 204.017 367.581 201.552 364.407 198.392C361.233 195.233 358.779 190.809 357.001 186.807C355.34 183.068 353.806 178.644 353.827 175.221C353.848 172.483 354.525 169.776 355.943 167.848C357.361 165.921 359.625 164.331 362.291 163.636C365.878 162.698 371.189 163.288 376.045 164.689C382.288 166.479 389.398 170.892 396.148 175.221C403.839 180.14 411.5 186.449 419.424 193.126C428.375 200.657 440.838 211.8 446.933 218.404C450.392 222.153 454.878 226.324 454.339 227.883C454.021 228.81 451.937 228.852 450.107 228.936C446.848 229.084 441.568 228.336 436.352 226.83C428.84 224.649 419.943 220.142 409.902 215.244C396.01 208.461 374.786 197.381 361.233 188.913C350.843 182.415 342.178 176.611 334.783 169.955C328.445 164.236 322.309 157.306 318.912 152.05C316.68 148.585 314.067 145.341 314.68 142.571C315.326 139.685 319.706 136.336 323.145 135.198C326.964 133.934 332.011 135.261 336.899 136.251C342.802 137.431 349.415 139.738 355.943 142.571C363.455 145.825 370.057 149.754 379.219 155.21C393.228 163.541 430.882 179.318 431.062 188.913C431.2 195.707 413.288 200.425 405.67 206.818C398.592 212.769 389.027 221.922 386.626 225.776C385.79 227.135 385.113 227.535 385.568 228.936C387.684 235.371 442.817 258.848 443.758 270.012C444.309 276.479 430.322 287.823 426.83 286.864C423.857 286.043 423.476 275.573 422.598 270.012C421.762 264.693 421.424 259.712 421.54 254.214C421.678 248.179 422.439 241.522 423.656 235.256C424.894 228.883 426.142 222.396 428.946 216.297C431.972 209.725 436.828 202.742 441.642 197.339C446.086 192.347 451.471 188.323 456.455 184.7C461.004 181.404 466.421 178.033 470.209 176.274C472.653 175.137 475.15 173.515 476.557 174.168C477.869 174.768 478.155 177.149 478.673 179.434C479.541 183.236 480.08 189.987 479.731 195.233C479.382 200.52 478.303 205.965 476.557 211.031C474.79 216.15 472.759 221.511 469.151 225.776C465.215 230.411 458.391 234.908 453.281 237.362C449.292 239.279 446.298 240.753 441.642 240.522C434.374 240.153 420.588 234.402 414.134 229.989C409.648 226.914 406.738 223.217 404.612 219.457C402.739 216.139 401.808 212.548 401.438 208.925C401.067 205.186 401.184 200.73 402.496 197.339C403.744 194.106 406.061 191.146 408.844 188.913C411.912 186.459 415.679 184.679 420.482 183.647C427.391 182.151 438.997 181.972 446.933 183.647C453.979 185.132 460.285 188.882 465.977 192.073C471.087 194.927 476.187 197.592 479.731 201.552C483.17 205.375 485.762 210.62 487.137 215.244C488.386 219.415 488.893 223.596 488.195 227.883C487.412 232.707 484.989 238.426 481.847 242.628C478.673 246.873 474.758 249.601 469.151 253.161C460.465 258.669 444.467 266.305 433.178 270.012C423.889 273.067 411.965 276.858 406.728 275.278C403.977 274.446 402.676 272.35 401.438 270.012C399.893 267.074 399.48 262.766 399.322 258.427C399.131 252.887 399.671 245.451 401.438 239.468C403.205 233.518 406.336 227.925 409.902 222.617C413.658 217.014 418.8 211.621 423.656 206.818C428.343 202.184 433.041 197.676 438.468 194.179C443.959 190.64 449.98 187.512 456.455 185.753C463.321 183.879 473.055 183.226 478.673 183.647C482.196 183.91 484.831 184.311 487.137 185.753C489.391 187.154 491.031 189.682 492.427 192.073C493.887 194.569 494.977 196.686 495.601 200.499C496.807 207.756 497.358 223.512 494.543 233.149C491.993 241.891 485.254 251.939 480.789 256.32C478.282 258.774 476.747 259.564 473.383 260.533C467.585 262.197 454.455 263.219 447.991 261.586C443.494 260.438 440.5 258.079 437.41 255.267C434.078 252.223 431.401 247.831 428.946 243.681C426.439 239.416 424.185 234.813 422.598 229.989C420.969 224.997 419.424 219.457 419.424 214.191C419.424 208.925 420.715 203.416 422.598 198.392C424.545 193.221 427.761 187.955 431.062 183.647C434.162 179.603 437.707 175.937 441.642 173.115C445.483 170.355 450.234 168.417 454.339 166.795C457.968 165.363 461.565 163.909 464.919 163.636C467.871 163.383 470.579 163.509 473.383 164.689C476.927 166.174 480.577 169.597 483.963 173.115C488.047 177.349 492.226 183.415 495.601 188.913C498.913 194.306 501.886 200.351 504.065 205.765C505.97 210.483 507.716 215.55 508.297 219.457C508.721 222.248 509.641 224.976 508.297 226.83C506.499 229.315 500.331 230.274 495.601 231.043C489.962 231.948 483.254 231.759 476.557 231.043C468.908 230.221 460.285 228.452 452.223 225.776C443.695 222.943 434.533 218.467 426.83 214.191C419.858 210.315 413.309 206.924 407.786 201.552C401.924 195.843 395.904 186.691 392.974 180.487C390.974 176.243 389.45 172.398 389.8 168.902C390.106 165.805 391.926 162.856 394.032 160.476C396.359 157.853 399.745 156.052 403.554 154.156C408.484 151.702 415.784 149.448 421.54 147.837C426.671 146.394 430.576 145.172 436.352 144.677C444.287 143.982 457.227 144.161 464.919 145.731C470.452 146.858 474.991 148.606 478.673 150.997C481.784 153.008 484.672 155.399 486.079 158.369C487.507 161.361 487.677 165.552 487.137 168.902C486.608 172.219 484.958 175.611 482.905 178.381C480.778 181.256 477.911 183.868 474.441 185.753C470.389 187.944 465.12 188.934 459.629 189.966C453.027 191.209 444.986 192.041 437.41 192.073C429.486 192.104 422.778 192.02 413.076 189.966C397.682 186.701 369.941 176.411 354.885 169.955C344.844 165.647 335.142 161.076 330.551 157.316C328.276 155.441 327.017 154.02 326.319 152.05C325.652 150.144 325.705 147.742 326.319 145.731C326.996 143.519 328.837 141.307 330.551 139.411C332.339 137.431 334.233 135.493 336.899 134.145C340.263 132.449 345.098 131.385 349.595 130.985C354.557 130.543 359.72 130.754 365.465 132.039C372.829 133.671 383.399 137.779 389.8 141.518C394.666 144.34 398.126 147.226 401.438 150.997C404.876 154.904 407.765 159.981 409.902 164.689C411.923 169.123 413.298 172.83 414.134 178.381C415.361 186.47 415.255 200.467 414.134 208.925C413.319 215.107 411.679 220.068 409.902 224.723C408.4 228.673 407.162 232.601 404.612 235.256C402.168 237.794 398.549 239.626 395.09 240.522C391.514 241.438 387.366 241.154 383.451 240.522C379.262 239.837 374.628 238.405 370.755 236.309C366.862 234.202 363.349 231.043 360.175 227.883C357.001 224.723 353.457 220.974 351.711 217.351C350.23 214.275 348.791 211.263 349.595 207.871C350.801 202.784 358.948 194.537 363.349 191.02C366.248 188.703 368.258 188.018 371.813 186.807C377.188 184.964 385.8 183.299 392.974 182.594C400.253 181.878 407.701 181.477 415.192 182.594C423.212 183.773 431.708 185.88 439.526 189.966C448.361 194.569 459.629 203.49 464.919 209.978C468.431 214.265 470.294 218.477 471.267 222.617C472.113 226.187 472.611 229.726 471.267 233.149C469.563 237.509 465.342 241.543 459.629 245.788C449.842 253.066 419.879 270.655 414.134 267.906C411.616 266.695 411.626 261.597 412.018 258.427C412.452 254.93 414.853 251.107 417.308 247.894C420.006 244.366 423.688 240.68 427.888 238.415C432.406 235.982 438.722 234.855 443.758 234.202C448.192 233.623 452.603 233.391 456.455 234.202C459.946 234.94 463.797 236.677 465.977 238.415C467.543 239.648 468.315 240.932 469.151 242.628C470.177 244.661 470.886 247.294 471.267 250.001C471.711 253.171 471.881 256.32 471.267 260.533C470.315 267.2 467.648 280.829 463.861 285.811C461.544 288.865 458.719 290.719 455.397 291.077C451.239 291.519 445.261 288.855 440.584 285.811C434.913 282.103 429.126 274.583 424.714 268.959C420.874 264.051 415.922 258.585 415.192 254.214C414.684 251.138 415.784 248.474 417.308 245.788C419.212 242.439 422.916 238.721 426.83 236.309C431.2 233.623 436.458 232.159 442.7 231.043C451.175 229.526 464.443 228.926 473.383 229.989C480.567 230.832 486.259 232.591 492.427 235.256C498.987 238.089 505.525 242.333 511.472 246.841C517.534 251.433 523.988 257.258 528.4 262.64C532.082 267.126 535.404 272.171 536.864 276.332C537.933 279.354 538.768 282.767 537.922 284.758C537.255 286.316 535.594 287.285 533.69 287.917C530.886 288.844 526.178 288.581 522.052 287.917C517.111 287.117 511.683 284.989 506.181 282.651C499.77 279.923 492.438 276.153 486.079 272.119C479.742 268.085 473.425 263.577 468.093 258.427C462.866 253.371 457.343 247.431 454.339 241.575C451.736 236.488 450.043 231.19 450.107 225.776C450.181 219.984 452.762 213.117 455.397 207.871C457.83 203.048 460.898 199.604 464.919 195.233C470.177 189.535 478.959 181.267 485.021 177.328C489.2 174.61 493.147 172.82 496.659 172.061C499.336 171.482 502.108 171.124 504.065 172.061C505.949 172.957 507.261 175.168 508.297 177.328C509.546 179.908 510.054 183.542 510.414 186.807C510.794 190.198 511.609 194.464 510.414 197.339C509.313 199.983 507.06 202.321 504.065 203.658C499.833 205.554 492.237 205.565 486.079 204.712C479.223 203.753 472.716 201.078 464.919 197.339C454.032 192.115 435.971 180.582 427.888 174.168C423.402 170.608 420.493 168.217 418.366 164.689C416.451 161.487 415.086 157.453 415.192 154.156C415.298 151.176 416.409 148.511 418.366 145.731C421.149 141.802 428.195 135.957 432.12 134.145C434.469 133.06 436.776 132.723 438.468 133.092C439.78 133.366 440.648 134.071 441.642 135.198C443.208 136.968 444.764 139.854 445.874 143.624C447.821 150.186 449.884 165.447 449.049 172.061C448.583 175.769 447.398 179.445 445.874 180.487C444.975 181.109 444.139 180.982 442.7 180.487C438.109 178.897 422.418 165.816 417.308 160.476C414.6 157.643 413.044 155.462 412.018 153.103C411.235 151.281 410.664 149.533 410.96 147.837C411.277 146.015 412.568 143.456 414.134 142.571C415.732 141.676 418.006 141.886 420.482 142.571C424.714 143.74 431.824 148.353 436.352 152.05C440.532 155.452 443.843 159.254 446.933 163.636C450.244 168.312 453.281 173.947 455.397 179.434C457.492 184.837 459.237 190.461 459.629 196.286C460.041 202.384 458.899 208.998 457.513 215.244C456.106 221.637 453.757 227.63 451.165 234.202C448.244 241.607 444.806 250.359 440.584 257.373C436.617 263.967 432.279 270.191 426.83 275.278C421.36 280.387 414.134 284.673 407.786 287.917C402.147 290.793 394.254 296.501 390.858 294.237C386.149 291.088 388.784 268.927 389.8 259.48C390.53 252.792 391.926 244.893 394.032 242.628C394.963 241.628 396.031 241.291 397.206 241.575C399.301 242.059 402.327 245.988 404.612 248.948C407.331 252.455 410.24 257.342 412.018 261.586C413.637 265.42 414.494 269.107 415.192 273.172C415.954 277.511 416.282 282.493 416.25 286.864C416.229 290.887 416.504 295.048 415.192 298.45C413.944 301.673 412.007 304.811 408.844 306.876C404.675 309.593 397.121 310.825 390.858 311.088C384.118 311.362 377.706 309.73 369.697 307.929C358.779 305.464 335.238 301.209 331.609 296.343C330.17 294.395 331.207 292.236 331.609 290.024C332.095 287.37 333.079 284.399 334.783 281.598C336.93 278.08 340.485 274.352 344.305 271.066C348.727 267.253 354.208 263.282 360.175 260.533C366.756 257.5 374.755 255.615 382.393 254.214C390.255 252.771 399.015 252.034 406.728 252.107C413.753 252.17 421.075 252.328 426.83 254.214C431.75 255.815 435.919 258.637 439.526 261.586C442.891 264.325 445.726 267.463 447.991 271.066C450.35 274.805 451.873 279.344 453.281 283.704C454.709 288.117 455.756 292.636 456.455 297.396C457.206 302.441 458.444 308.224 457.513 313.195C456.613 318.04 454.571 324.296 451.165 326.887C448.033 329.267 440.669 330.942 438.468 328.993C435.802 326.613 438.289 316.513 439.526 310.035C440.902 302.852 443.43 294.131 446.933 287.917C450.011 282.462 454.032 278.07 458.571 274.225C463.184 270.328 468.886 267.032 474.441 264.746C479.837 262.524 486.217 261.165 491.369 260.533C495.58 260.017 500.426 259.754 503.007 260.533C504.489 260.976 505.6 261.334 506.181 262.64C507.345 265.21 505.853 273.204 504.065 277.385C502.468 281.134 499.41 284.168 496.659 286.864C494.088 289.381 491.369 291.951 488.195 293.183C485.021 294.416 481.149 294.237 477.615 294.237C474.092 294.237 470.505 294.026 467.035 293.183C463.448 292.309 459.502 290.961 456.455 288.971C453.545 287.054 451.249 284.515 449.049 281.598C446.583 278.312 444.129 273.772 442.7 270.012C441.484 266.779 440.5 263.482 440.584 260.533C440.669 257.911 441.219 255.309 442.7 253.161C444.446 250.633 448.075 247.863 451.165 246.841C454.095 245.862 457.555 246.336 460.687 246.841C463.903 247.357 467.141 248.505 470.209 250.001C473.499 251.602 477.224 253.75 479.731 256.32C482.08 258.722 484.005 262.176 485.021 264.746C485.772 266.631 486.439 268.422 486.079 270.012C485.73 271.582 484.926 273.056 482.905 274.225C477.795 277.174 457.851 277.89 449.049 278.438C443.462 278.786 439.146 278.975 435.294 278.438C432.417 278.038 430.459 278.017 427.888 276.332C423.582 273.499 417.403 264.925 414.134 259.48C411.542 255.151 407.564 249.242 408.844 246.841C409.987 244.714 416.335 244.071 419.424 244.735C422.27 245.335 424.64 247.747 426.83 250.001C429.295 252.529 431.634 255.33 433.178 259.48C435.506 265.683 437.029 279.523 436.352 284.758C436.035 287.222 435.474 288.791 434.236 290.024C433.009 291.246 431.105 291.614 428.946 292.13C425.867 292.867 421.604 293.236 417.308 293.183C411.965 293.11 405.427 292.383 399.322 291.077C392.741 289.666 385.377 287.517 379.219 284.758C373.453 282.167 368.036 279.344 363.349 275.278C358.451 271.013 353.277 264.862 350.653 259.48C348.473 254.993 347.987 250.19 347.479 245.788C347.024 241.786 346.77 237.899 347.479 234.202C348.188 230.537 349.817 226.956 351.711 223.67C353.668 220.279 355.996 217.319 359.117 214.191C363.032 210.283 368.322 205.986 373.929 202.605C380.161 198.845 387.599 195.717 395.09 193.126C403.057 190.377 412.145 187.828 420.482 186.807C428.354 185.838 436.511 185.448 443.758 186.807C450.551 188.071 457.322 190.956 462.803 194.179C467.733 197.076 472.283 200.657 475.499 204.712C478.483 208.461 481.181 213.464 481.847 217.351C482.365 220.352 482.038 223.249 480.789 225.776C479.414 228.578 476.472 231.401 473.383 233.149C469.934 235.098 465.437 235.972 460.687 236.309C454.783 236.72 447.514 235.74 440.584 234.202C432.766 232.464 423.984 229.02 416.25 225.776C408.844 222.659 401.448 219.288 395.09 215.244C389.207 211.495 383.832 206.913 379.219 202.605C375.167 198.814 371.327 195.212 368.639 191.02C366.142 187.091 364.407 182.762 363.349 178.381C362.291 173.989 361.582 168.301 362.291 164.689C362.81 162.087 363.878 159.949 365.465 158.369C367.052 156.79 369.179 156.031 371.813 155.21C375.654 154.02 381.304 153.335 386.626 153.103C392.804 152.829 399.47 153.303 406.728 154.156C415.446 155.178 433.274 157 435.294 159.423C435.844 160.076 435.675 160.676 435.294 161.529C434.321 163.72 428.576 168.702 424.714 171.008C421.127 173.157 417.17 174.178 413.076 175.221C408.738 176.327 404.326 177.465 399.322 177.328C393.249 177.159 385.821 175.168 379.219 173.115C372.416 170.998 365.455 167.775 359.117 164.689C353.15 161.771 342.157 156.768 342.189 155.21C342.21 154.662 343.416 154.083 344.305 154.156C346.061 154.293 348.96 156.716 351.711 159.423C356.747 164.352 366.047 176.432 369.697 183.647C372.226 188.618 373.369 193.611 373.929 197.339C374.31 199.814 374.659 201.057 373.929 203.658C372.512 208.777 365.285 219.952 361.233 224.723C358.694 227.714 354.483 228.694 353.827 231.043C353.287 232.981 354.779 236.193 355.943 237.362C356.768 238.184 357.594 238.32 359.117 238.415C362.915 238.626 371.284 235.224 379.219 234.202C390.487 232.738 416.292 235.529 420.482 232.096C421.847 230.979 421.752 229.895 421.54 227.883C420.937 222.069 411.521 204.522 405.67 195.233C400.771 187.439 395.471 181.151 389.8 175.221C384.488 169.66 378.987 164.836 372.871 160.476C366.661 156.042 359.054 150.828 352.769 148.89C347.934 147.395 343.575 147.489 339.015 147.837C334.402 148.174 328.921 148.975 325.261 150.997C322.108 152.735 318.627 156.526 317.854 158.369C317.516 159.191 317.389 160.065 317.854 160.476C318.796 161.297 322.499 160.423 326.319 159.423C335.28 157.063 357.096 146.205 369.697 141.518C379.219 137.979 386.742 135.219 395.09 133.092C402.951 131.091 411.087 129.742 418.366 128.879C424.725 128.12 432.459 127.457 436.352 127.826C438.278 128.005 440.521 128.278 440.584 128.879C440.68 129.753 436.12 131.607 432.12 133.092C423.646 136.241 401.903 140.085 390.858 143.624C383.208 146.068 377.389 148.111 371.813 150.997C366.999 153.482 362.873 156.189 359.117 159.423C355.499 162.54 352.102 166.153 349.595 169.955C347.225 173.557 345.691 177.359 344.305 181.541C342.802 186.08 341.617 191.757 341.131 196.286C340.729 200.067 340.655 203.258 341.131 206.818C341.649 210.62 342.929 215.592 344.305 218.404C345.225 220.268 345.998 221.458 347.479 222.617C349.309 224.039 352.208 225.071 354.885 225.776C357.816 226.545 360.863 227.093 364.407 226.83C369.062 226.482 375.887 224.965 380.277 222.617C384.15 220.542 386.53 217.93 389.8 214.191C394.54 208.767 401.618 197.571 404.612 192.073C406.262 189.05 407.342 186.849 407.786 184.7C408.114 183.131 408.241 181.583 407.786 180.487C407.405 179.56 406.664 178.613 405.67 178.381C404.189 178.033 401.142 179.065 399.322 180.487C397.11 182.225 395.83 184.985 394.032 188.913C390.614 196.412 385.515 213.022 383.451 223.67C381.769 232.37 381.526 239.721 381.335 247.894C381.145 256.225 381.388 264.114 382.393 273.172C383.589 283.873 387.366 307.823 388.742 307.929C389.165 307.96 389.726 306.223 389.8 304.769C389.979 301.673 388.403 296.143 386.626 290.024C383.526 279.323 374.659 259.248 370.755 246.841C367.888 237.678 365.486 230.927 364.407 222.617C363.307 214.086 363.201 204.491 364.407 196.286C365.518 188.787 367.391 181.551 370.755 175.221C374.109 168.923 379.706 162.351 384.51 158.369C388.255 155.262 391.704 153.598 396.148 152.05C401.364 150.228 407.659 149.448 414.134 148.89C421.614 148.237 429.602 148.111 438.468 148.89C449.334 149.838 464.633 152.376 474.441 155.21C481.604 157.274 488.322 160.17 492.427 162.582C494.85 164.004 497.008 165.31 497.717 166.795C498.215 167.806 498.162 168.775 497.717 169.955C496.956 172.019 494.088 174.737 491.369 177.328C487.592 180.93 482.662 185.058 476.557 188.913C468.177 194.2 452.921 201.626 444.816 204.712C440.098 206.502 436.903 207.376 433.178 207.871C429.877 208.314 426.481 208.324 423.656 207.871C421.297 207.482 419.075 206.987 417.308 205.765C415.541 204.533 413.954 202.363 413.076 200.499C412.304 198.835 411.912 197.381 412.018 195.233C412.198 191.715 413.52 186.322 416.25 181.541C420.196 174.631 429.856 164.489 436.352 159.423C441.05 155.757 445.06 153.788 450.107 152.05C455.566 150.165 461.131 149.491 468.093 148.89C477.583 148.058 491.634 148.006 501.949 148.89C510.773 149.649 523.872 148.659 526.284 153.103C528.685 157.495 520.634 167.912 516.762 175.221C512.625 183.026 501.949 198.392 501.949 198.392" stroke="black" stroke-width="3.36901" stroke-linecap="round"/>
</svg>
